<svg width="24" height="24" viewBox="0 0 24 24" fill="none" xmlns="http://www.w3.org/2000/svg" class="default-ltr-cache-nhbx9n" data-name="WarningFill" data-uia="UIMessage-content+icon" aria-hidden="true"><path fill-rule="evenodd" clip-rule="evenodd" d="M20.7349 21H3.26511C1.66209 21 0.710473 19.2085 1.60794 17.8803L10.3428 4.95261C11.1359 3.7789 12.8642 3.7789 13.6572 4.95261L22.3921 17.8803C23.2896 19.2085 22.3379 21 20.7349 21ZM13.5 8.99999H10.5L11 15H13L13.5 8.99999ZM12 16C12.8284 16 13.5 16.6716 13.5 17.5C13.5 18.3284 12.8284 19 12 19C11.1716 19 10.5 18.3284 10.5 17.5C10.5 16.6716 11.1716 16 12 16Z" fill="currentColor"></path></svg>